<svg width="464" height="238" viewBox="0 0 464 238" fill="none" xmlns="http://www.w3.org/2000/svg">
  <rect width="464" height="238" fill="white" />
  <path d="M211.419 132.595H189.856L217.385 96.1661C217.985 95.3662 217.819 94.1997 217.019 93.5998C216.719 93.3665 216.319 93.2332 215.919 93.2332H176.091C172.591 93.2332 169.725 96.0995 169.725 99.599C169.725 103.099 172.591 105.965 176.091 105.965H193.988L166.359 142.427C165.726 143.227 165.892 144.36 166.692 144.993C167.025 145.26 167.425 145.393 167.825 145.36H211.386C214.886 145.193 217.585 142.193 217.419 138.66C217.252 135.394 214.652 132.795 211.386 132.628V132.595H211.419ZM350.601 93.2332C347.101 93.2332 344.235 96.0995 344.235 99.599V120.963L309.84 93.6664C309.073 93.0332 307.907 93.1332 307.273 93.9331C307.007 94.2664 306.873 94.6663 306.873 95.0996V138.994C306.873 142.493 309.74 145.36 313.239 145.36C316.739 145.36 319.605 142.527 319.605 138.994V117.63L354 144.96C354.8 145.593 355.967 145.46 356.6 144.66C356.867 144.326 357 143.926 357 143.526V99.599C356.967 96.0661 354.134 93.2332 350.601 93.2332ZM259.58 133.794C245.015 133.794 234.15 126.129 234.15 119.263C234.15 112.397 245.048 104.732 259.58 104.732C274.144 104.732 285.01 112.397 285.01 119.263C285.01 126.129 274.178 133.794 259.58 133.794ZM259.58 92C238.516 92 221.418 104.198 221.418 119.263C221.418 134.328 238.516 146.526 259.58 146.526C280.644 146.526 297.741 134.328 297.741 119.263C297.741 104.198 280.644 92 259.58 92ZM134.296 133.828C126.264 133.828 119.732 127.329 119.732 119.296C119.732 111.264 126.231 104.732 134.263 104.732C142.295 104.732 148.828 111.231 148.828 119.263V119.296C148.828 127.295 142.329 133.794 134.296 133.828ZM134.296 92C119.232 92 107.033 104.198 107 119.263C107 134.328 119.198 146.526 134.263 146.559C149.328 146.559 161.526 134.361 161.559 119.296V119.263C161.526 104.198 149.328 92 134.296 92Z" fill="#005BFF" />
</svg>
