<svg width="464" height="238" viewBox="0 0 464 238" fill="none" xmlns="http://www.w3.org/2000/svg">
<rect width="464" height="238" fill="white"/>
<g clip-path="url(#clip0_2510_8)">
<path fill-rule="evenodd" clip-rule="evenodd" d="M327.428 111.819C327.408 110.907 327.039 110.038 326.4 109.397C325.761 108.756 324.902 108.393 324.004 108.385H320.906C320.278 108.387 319.663 108.565 319.129 108.9C318.594 109.235 318.161 109.714 317.878 110.283L308.839 125.029V111.819C308.834 110.91 308.477 110.038 307.845 109.395C307.212 108.752 306.356 108.389 305.462 108.385H302.363C301.469 108.389 300.612 108.752 299.98 109.395C299.348 110.038 298.99 110.91 298.986 111.819V135.45C298.988 136.361 299.345 137.234 299.977 137.879C300.61 138.524 301.468 138.888 302.363 138.892H305.818C306.369 138.893 306.913 138.757 307.4 138.494C307.888 138.232 308.305 137.852 308.614 137.388L317.506 124.083L317.544 135.434C317.539 135.884 317.622 136.33 317.787 136.747C317.953 137.163 318.198 137.543 318.508 137.863C318.818 138.183 319.188 138.437 319.596 138.611C320.003 138.785 320.441 138.875 320.883 138.876H324.391C324.836 138.878 325.276 138.79 325.686 138.617C326.097 138.444 326.469 138.19 326.781 137.868C327.094 137.547 327.34 137.165 327.505 136.746C327.671 136.327 327.752 135.878 327.745 135.426L327.428 111.819Z" fill="#474530"/>
<path fill-rule="evenodd" clip-rule="evenodd" d="M202.393 98.0107H176.298C175.405 98.0149 174.549 98.3783 173.918 99.0217C173.287 99.6651 172.931 100.536 172.929 101.445V103.753C172.935 104.661 173.292 105.529 173.922 106.172C174.553 106.814 175.406 107.179 176.298 107.187H184.044V135.426C184.048 136.338 184.406 137.211 185.04 137.856C185.674 138.5 186.532 138.864 187.429 138.868H191.301C192.197 138.864 193.055 138.5 193.688 137.855C194.32 137.21 194.676 136.337 194.678 135.426V107.187H202.424C203.318 107.181 204.173 106.817 204.805 106.175C205.437 105.532 205.795 104.662 205.801 103.753V101.445C205.797 100.536 205.44 99.6644 204.807 99.0212C204.175 98.378 203.318 98.0149 202.424 98.0107" fill="#474530"/>
<path fill-rule="evenodd" clip-rule="evenodd" d="M229.433 128.124V120.996C229.433 113.229 226.04 108.03 216.165 108.03C208.698 108.03 204.399 110.96 204.399 114.458C204.399 117.089 205.708 118.31 207.095 118.893C208.752 117.664 210.82 116.805 214.437 116.805C217.83 116.805 220.324 117.813 220.409 120.35H215.653C215.452 120.35 211.006 120.35 208.148 121.531C207.799 121.697 207.451 121.878 207.133 122.067C207.045 122.13 206.952 122.185 206.855 122.232C205.553 123.015 204.479 124.136 203.744 125.48C203.009 126.824 202.639 128.343 202.672 129.881C202.672 135.954 207.211 139.168 212.602 139.168C217.427 139.168 219.836 136.419 220.587 134.67L220.703 134.733C221.478 137.474 223.027 139.097 226.125 139.097C230.091 139.097 231.547 136.419 231.81 134.615C230.54 134.087 229.487 132.252 229.487 128.132L229.433 128.124ZM216.18 125.572H220.471V127.195C220.471 127.821 220.349 128.442 220.111 129.02C219.873 129.598 219.524 130.122 219.085 130.562C218.646 131.002 218.126 131.348 217.554 131.582C216.982 131.815 216.37 131.93 215.754 131.921C213.523 131.921 211.881 130.59 211.881 128.723C211.881 126.502 213.934 125.572 216.18 125.572Z" fill="#474530"/>
<path fill-rule="evenodd" clip-rule="evenodd" d="M352.175 128.242C351.478 129.003 350.632 129.607 349.692 130.014C348.751 130.421 347.736 130.622 346.714 130.605H346.52C345.123 130.621 343.761 130.164 342.648 129.305C341.966 128.755 341.426 128.044 341.075 127.234C340.56 126.156 340.295 124.973 340.301 123.776C340.298 122.564 340.577 121.368 341.114 120.286C341.553 119.345 342.239 118.547 343.097 117.978C343.128 117.953 343.161 117.931 343.198 117.915C343.229 117.891 343.263 117.87 343.298 117.852C344.005 117.447 344.78 117.18 345.583 117.064C345.645 117.072 345.707 117.072 345.769 117.064H345.939C346.066 117.057 346.193 117.057 346.319 117.064H346.536C347.512 117.048 348.477 117.27 349.351 117.713C350.225 118.156 350.981 118.806 351.555 119.609C354.738 119.609 356.721 117.671 356.721 115.229C356.721 111.606 353.336 107.872 345.986 107.872C338.24 107.872 330.658 112.716 330.658 123.87C330.658 135.024 338.519 139.466 346.28 139.466C352.531 139.466 357.015 136.481 357.015 132.692C357.015 130.329 354.924 128.462 352.19 128.313" fill="#474530"/>
<path d="M258.037 112.134L258.106 112.181V112.197C261.483 114.379 262.901 118.499 262.901 124.517C262.901 134.56 255.891 139.231 247.859 139.231C237.976 139.231 232.872 132.047 232.872 120.846C232.872 107.164 238.441 99.2791 250.322 98.003C255.821 97.4044 257.099 96.4119 258.013 95.2461C260.461 95.3564 262.785 96.8215 262.785 99.5705C262.785 103.367 260.314 105.352 252.669 105.935C246.085 106.463 243.692 108.495 242.917 113.505C245.191 111.345 248.204 110.175 251.314 110.244C253.615 110.218 255.879 110.837 257.858 112.032C257.922 112.058 257.982 112.092 258.037 112.134Z" fill="#474530"/>
<path fill-rule="evenodd" clip-rule="evenodd" d="M283.798 108.101C282.199 108.066 280.62 108.477 279.235 109.289C277.849 110.101 276.708 111.284 275.936 112.709V111.834C275.932 110.923 275.574 110.05 274.94 109.405C274.306 108.76 273.448 108.396 272.551 108.392H269.453C268.557 108.396 267.7 108.761 267.067 109.405C266.434 110.05 266.078 110.923 266.076 111.834V145.705C266.078 146.616 266.434 147.489 267.067 148.134C267.7 148.779 268.557 149.143 269.453 149.147H272.551C273.448 149.143 274.306 148.779 274.94 148.135C275.574 147.49 275.932 146.617 275.936 145.705V135.56C277.307 137.545 280.583 139.065 283.736 139.065C290.467 139.065 295.919 134.851 295.919 123.752C295.919 112.48 290.637 108.101 283.798 108.101ZM285.695 126.178C285.293 128.817 283.287 130.849 280.862 130.849H280.359C279.523 130.837 278.711 130.562 278.035 130.062C277.277 129.511 276.697 128.743 276.37 127.856C275.985 126.289 275.823 124.673 275.89 123.059C275.89 122.515 275.959 121.98 276.029 121.484C276.385 118.758 278.407 116.687 280.854 116.687C283.302 116.687 285.339 118.758 285.695 121.484C285.8 122.238 285.852 122.998 285.85 123.76C285.849 124.551 285.792 125.341 285.68 126.123" fill="#474530"/>
<path fill-rule="evenodd" clip-rule="evenodd" d="M115.52 98.2389C122.189 98.2433 128.61 100.816 133.49 105.438C138.383 100.807 144.821 98.2345 151.506 98.2389C146.617 93.5802 140.166 90.9916 133.466 91C133.079 91 132.692 91 132.312 91H132.181C125.928 91.3111 119.988 93.8775 115.427 98.2389H115.52Z" fill="white"/>
<path fill-rule="evenodd" clip-rule="evenodd" d="M141.963 125.107C143.451 123.695 145.096 122.466 146.866 121.444C150.843 119.132 155.343 117.911 159.924 117.899C159.933 114.204 159.189 110.547 157.74 107.157C156.292 103.768 154.169 100.721 151.505 98.207C144.816 98.2111 138.378 100.795 133.489 105.438C136.158 107.951 138.288 110.997 139.746 114.385C141.204 117.774 141.958 121.432 141.963 125.13" fill="#94C22B"/>
<path fill-rule="evenodd" clip-rule="evenodd" d="M120.121 121.445C121.89 122.467 123.533 123.699 125.016 125.115C125.021 121.417 125.776 117.759 127.234 114.371C128.692 110.982 130.821 107.936 133.489 105.423C128.595 100.795 122.157 98.2274 115.474 98.2393H115.427C112.769 100.752 110.649 103.794 109.2 107.177C107.75 110.56 107.001 114.21 107 117.9C111.603 117.895 116.127 119.117 120.121 121.445Z" fill="#94C22B"/>
<path fill-rule="evenodd" clip-rule="evenodd" d="M141.963 125.107C139.359 127.557 137.268 130.515 135.813 133.805C134.359 137.095 133.571 140.65 133.497 144.256C133.497 144.414 133.497 144.563 133.497 144.729C133.488 141.041 132.73 137.394 131.271 134.018C129.812 130.641 127.682 127.608 125.016 125.107V125.186C125.014 129.764 126.166 134.266 128.362 138.262C129.708 140.715 131.419 142.942 133.435 144.863H133.49H133.544C135.561 142.943 137.272 140.716 138.617 138.262C140.81 134.265 141.962 129.764 141.963 125.186V125.107Z" fill="#474530"/>
<path fill-rule="evenodd" clip-rule="evenodd" d="M107 117.899C107 117.899 107 117.899 107 117.939C107.002 124.827 109.598 131.453 114.256 136.455C118.913 141.457 125.278 144.454 132.041 144.831H132.119H132.893H133.451C131.432 142.921 129.715 140.705 128.362 138.261C126.169 134.264 125.018 129.763 125.016 125.186V125.107C123.529 123.693 121.884 122.464 120.113 121.444C116.123 119.115 111.601 117.893 107 117.899" fill="#6B8C26"/>
<path fill-rule="evenodd" clip-rule="evenodd" d="M133.49 105.439C130.82 107.951 128.69 110.997 127.231 114.385C125.773 117.774 125.019 121.432 125.016 125.131C127.677 127.631 129.803 130.662 131.26 134.036C132.716 137.409 133.473 141.052 133.482 144.737C133.482 144.579 133.482 144.429 133.482 144.272C133.555 140.661 134.343 137.103 135.801 133.81C137.258 130.517 139.354 127.557 141.963 125.107C141.959 121.409 141.204 117.751 139.746 114.362C138.288 110.974 136.158 107.928 133.49 105.415" fill="#6B8C26"/>
<path fill-rule="evenodd" clip-rule="evenodd" d="M159.932 117.899C155.348 117.909 150.845 119.131 146.866 121.444C145.096 122.466 143.451 123.695 141.963 125.107V125.186C141.965 129.763 140.813 134.265 138.617 138.261C137.274 140.717 135.563 142.944 133.543 144.862H134.248H134.821C141.601 144.499 147.985 141.504 152.658 136.494C157.33 131.485 159.934 124.843 159.932 117.939V117.899Z" fill="#6B8C26"/>
<path d="M242.901 118.281C242.901 118.065 243.077 117.89 243.293 117.89H246.898C250.31 117.89 253.076 120.655 253.076 124.067V125.157C253.076 127.967 250.798 130.244 247.989 130.244C245.179 130.244 242.901 127.967 242.901 125.157V118.281Z" fill="white"/>
</g>
<defs>
<clipPath id="clip0_2510_8">
<rect width="250" height="58.1395" fill="white" transform="translate(107 91)"/>
</clipPath>
</defs>
</svg>
