<svg width="464" height="238" viewBox="0 0 464 238" fill="none" xmlns="http://www.w3.org/2000/svg">
  <rect width="464" height="238" fill="white" />
  <path d="M152.817 99.5021C153.065 98.9347 153.065 98.9347 154.435 95.5935C151.136 95.2152 149.33 94.9 146.467 94.963C142.732 93.0717 138.561 92 134.141 92C119.139 92 107 104.293 107 119.487C107 134.68 119.139 146.974 134.141 146.974C149.144 146.974 161.283 134.68 161.283 119.487C161.283 111.606 157.983 104.546 152.817 99.5021Z" fill="white" />
  <path d="M150.823 103.346C150.76 103.283 150.698 103.283 150.636 103.283C150.574 103.283 150.511 103.346 150.449 103.346C149.329 104.67 148.021 105.868 146.59 106.814C143.726 108.642 140.489 109.651 137.065 109.651C130.716 109.651 127.105 106.499 124.179 104.229C124.117 104.166 124.055 104.103 124.055 104.04C124.055 103.977 124.117 103.914 124.179 103.851C128.724 100.32 132.459 98.0508 136.256 96.7269C136.38 96.6638 136.443 96.6008 136.443 96.4747C136.443 96.3486 136.318 96.2855 136.194 96.2225C135.509 96.1595 134.824 96.1595 134.139 96.1595C121.378 96.0964 111.044 106.562 111.044 119.485C111.044 126.609 114.157 132.977 119.137 137.264C119.199 137.327 119.262 137.327 119.386 137.327C119.448 137.327 119.511 137.264 119.573 137.138L120.507 134.111C120.569 133.985 120.693 133.922 120.818 133.922C133.143 136.633 138.435 129.888 137.563 125.664C136.816 122.07 131.027 118.918 122.561 123.772C122.499 123.835 122.436 123.835 122.374 123.772C122.374 123.772 122.312 123.772 122.312 123.709C122.25 123.646 122.187 123.583 122.187 123.457L125.051 108.642C125.051 108.579 125.113 108.516 125.175 108.453C125.238 108.39 125.362 108.453 125.424 108.453C126.234 108.957 128.661 110.533 131.276 112.109C131.338 112.172 131.4 112.235 131.4 112.362C131.338 112.992 130.965 115.325 130.84 116.333C130.84 116.396 130.84 116.522 130.902 116.585C130.965 116.648 131.027 116.648 131.151 116.648C145.345 112.803 148.333 121.818 147.959 126.105C147.088 135.877 136.443 141.046 126.981 141.172C126.856 141.172 126.732 141.235 126.732 141.361C126.732 141.487 126.794 141.614 126.918 141.614C129.222 142.37 131.649 142.811 134.139 142.811C146.901 142.811 157.234 132.346 157.234 119.422C157.234 113.244 154.744 107.507 150.823 103.346Z" fill="#E61801" />
  <path d="M128.166 103.979C135.823 109.842 147.028 106.879 150.763 97.7373C143.853 101.079 136.196 103.222 128.166 103.979Z" fill="#78B617" />
  <path d="M128.166 103.978C136.196 103.285 143.791 101.141 150.763 97.7368C142.982 96.8542 134.889 98.8085 128.166 103.978Z" fill="#28A62A" />
  <path d="M245.259 113.436C242.333 113.436 240.59 115.327 239.159 117.66H239.096C239.096 115.264 238.163 113.436 235.486 113.436C232.311 113.436 230.63 115.831 229.51 117.849H229.448C229.634 117.092 229.821 116.021 230.008 115.138C230.07 114.823 229.946 114.508 229.759 114.318C229.572 114.066 229.261 113.94 228.95 113.94H225.775L222.911 130.142C222.849 130.394 222.911 130.71 223.098 130.962C223.285 131.151 223.534 131.277 223.845 131.277H227.206L227.456 129.827C229.136 120.181 231.44 117.534 233.307 117.534C234.614 117.534 234.801 118.795 234.49 120.497L232.747 129.953C232.685 130.268 232.747 130.584 232.996 130.836C233.183 131.088 233.494 131.214 233.805 131.214H237.104L237.353 129.764C239.034 120.181 241.337 117.471 243.205 117.471C244.45 117.471 244.637 118.668 244.325 120.434L242.582 130.142C242.52 130.394 242.582 130.647 242.769 130.899C242.956 131.088 243.205 131.214 243.454 131.214H246.878L248.808 120.245C248.994 119.362 249.056 118.542 249.056 117.849C248.994 114.949 247.625 113.436 245.259 113.436ZM264.308 109.779L265.802 110.032C266.238 110.095 266.611 110.158 266.736 109.464L267.234 107.573C267.358 107.005 267.171 106.879 266.611 106.753L265.242 106.501C264.93 106.501 264.432 106.375 264.308 107.068L263.748 109.023C263.685 109.464 263.81 109.716 264.308 109.779ZM220.732 113.94H214.196C209.341 113.94 206.104 116.021 206.104 119.929C206.104 122.01 207.535 123.334 208.967 123.46V123.523C208.407 123.712 207.784 124.468 207.099 125.288C205.917 126.801 205.045 127.81 204.298 127.81C204.174 127.81 204.049 127.936 203.987 128.062L203.614 130.773C203.614 130.899 203.614 131.025 203.738 131.088C203.8 131.151 203.925 131.214 204.049 131.214H205.419C207.66 131.214 208.407 130.331 210.586 127.557C212.266 125.288 212.889 124.594 213.947 124.594H214.694L213.636 130.71C213.636 130.836 213.636 130.962 213.698 131.025C213.76 131.151 213.885 131.151 214.009 131.151H217.807C217.993 131.151 218.18 131.025 218.18 130.836L221.106 114.318C221.106 114.192 221.106 114.066 221.044 114.003C220.981 114.003 220.857 113.94 220.732 113.94ZM215.317 121.505H212.951C211.457 121.505 210.772 121.001 210.772 119.992C210.772 118.29 211.831 117.408 213.885 117.408H216.126L215.317 121.505ZM209.341 105.934C227.518 105.177 256.215 108.582 256.215 108.582C256.589 108.645 256.9 108.455 257.025 108.14L257.336 107.195L257.834 105.619C257.896 105.492 257.834 105.429 257.772 105.303C257.709 105.24 257.647 105.177 257.523 105.114C253.974 104.61 227.767 101.205 208.718 101.647C190.79 102.088 175.725 105.682 171.679 106.753C171.368 106.816 171.119 107.068 171.056 107.447L170.621 109.779C170.621 109.905 170.621 110.032 170.745 110.095C170.807 110.158 170.932 110.221 171.056 110.158C174.293 109.401 178.838 108.645 184.814 107.888L180.83 130.457C180.705 130.836 180.705 131.277 181.452 131.277H185.312C185.561 131.277 185.872 131.214 185.997 130.584L189.732 108.771C189.732 108.708 189.981 107.573 191.226 107.258C192.844 107.068 195.645 106.942 197.326 106.753L193.155 130.457C193.031 131.277 193.404 131.214 193.716 131.214H197.762C198.073 131.214 198.571 131.151 198.696 130.394L202.617 107.636C202.617 107.636 202.867 106.438 204.112 106.186C206.104 106.123 207.349 105.997 209.341 105.934ZM259.577 109.149L261.258 109.401C261.693 109.464 262.067 109.527 262.254 108.834L262.814 106.879C262.938 106.249 262.752 106.123 262.191 105.997L260.635 105.808C260.324 105.745 259.826 105.682 259.639 106.375L259.079 108.392C258.892 108.771 259.017 109.023 259.577 109.149ZM266.113 117.975C266.113 115.138 264.183 113.499 260.884 113.499C255.406 113.499 251.048 118.29 251.048 124.784C251.048 128.881 253.29 131.718 257.585 131.718C260.946 131.718 263.125 130.394 264.432 129.197L262.627 126.107C261.569 127.053 260.075 127.936 258.27 127.936C256.402 127.936 255.655 126.738 255.593 124.784C261.32 124.153 266.113 122.199 266.113 117.975ZM255.904 121.821C256.527 119.299 257.958 117.029 260.137 117.029C261.195 117.029 261.756 117.471 261.756 118.479C261.693 120.308 259.328 121.505 255.904 121.821ZM279.622 113.436C276.634 113.436 275.077 115.516 273.646 117.975H273.583C273.77 117.345 273.894 116.777 274.019 116.147C274.144 115.579 274.019 115.012 273.646 114.571C273.272 114.129 272.774 113.877 272.214 113.877H270.035L265.491 138.968H268.043C269.163 138.968 270.16 138.149 270.346 137.014L271.342 131.403C271.716 131.529 272.463 131.655 273.708 131.655C279.622 131.655 283.917 126.801 283.917 119.299C284.041 115.768 282.298 113.436 279.622 113.436ZM273.832 128.251C272.836 128.251 272.338 128.125 272.089 128.062L272.276 127.116C273.583 120.749 275.762 117.534 277.816 117.534C278.875 117.534 279.373 118.542 279.373 120.118C279.248 125.162 276.82 128.251 273.832 128.251ZM351.086 113.436C344.736 113.436 340.316 118.542 340.316 125.981C340.316 129.512 342.121 131.655 344.736 131.655C347.537 131.655 349.218 129.575 350.525 127.053H350.587C350.401 127.81 350.276 128.755 350.151 129.638C350.09 130.016 350.214 130.457 350.525 130.773C350.774 131.088 351.147 131.277 351.583 131.277H354.51C354.571 130.016 354.758 127.179 355.567 122.388L356.999 114.508C356.252 114.129 354.198 113.436 351.086 113.436ZM351.895 118.101C350.711 124.594 348.471 127.684 346.603 127.684C345.545 127.684 345.046 126.864 345.046 125.162C345.046 120.308 347.599 116.903 350.401 116.903C351.086 116.903 351.707 117.029 352.019 117.092L351.895 118.101ZM334.34 124.405C333.842 123.397 333.344 122.703 332.846 122.262L340.378 113.94H336.27C335.584 113.94 334.9 114.255 334.403 114.823L329.111 121.001H328.177L329.174 115.327C329.235 115.012 329.174 114.634 328.924 114.381C328.738 114.129 328.363 113.94 328.053 113.94H324.753L321.765 131.277H325.065C325.811 131.277 326.434 130.71 326.558 130.016L327.617 124.153H328.115C329.111 124.153 329.734 125.225 330.791 127.557C332.036 130.268 332.659 131.277 334.838 131.277H336.643L337.265 127.81H336.892C336.083 127.81 335.399 126.738 334.34 124.405ZM315.789 115.012C315.104 119.425 312.863 122.325 310.684 122.325C309.564 122.325 309.191 121.505 309.502 119.614L310.062 116.21C310.124 115.642 310 115.075 309.626 114.634C309.253 114.192 308.755 113.94 308.195 113.94H305.891L304.833 119.803C304.709 120.56 304.646 121.316 304.646 121.947C304.646 124.847 306.015 126.423 308.443 126.423C311.494 126.423 313.486 124.405 314.731 122.199H314.793C314.295 124.847 313.611 128.755 313.362 131.214H317.781C317.844 129.953 318.155 127.116 318.964 122.325L320.458 113.877H315.914L315.789 115.012ZM295.371 113.436C289.831 113.436 285.66 118.416 285.66 124.405C285.66 128.377 288.088 131.655 292.507 131.655C298.172 131.655 302.094 126.927 302.094 120.686C302.157 116.588 299.666 113.436 295.371 113.436ZM292.943 128.125C291.2 128.125 290.329 126.612 290.329 124.342C290.329 121.127 292.134 117.029 294.997 117.029C296.741 117.029 297.612 118.353 297.612 120.749C297.612 123.901 295.994 128.125 292.943 128.125Z" fill="#E61801" />
</svg>
