<svg width="186" height="24" viewBox="0 0 186 24" fill="none" xmlns="http://www.w3.org/2000/svg">
  <path d="M43.0977 21.1056C41.8757 21.1056 40.7712 20.8354 39.7842 20.2949C38.809 19.7544 38.0393 19.0083 37.4753 18.0565C36.9231 17.093 36.647 16.0179 36.647 14.8311C36.647 13.6444 36.9231 12.5751 37.4753 11.6234C38.0393 10.6599 38.8148 9.90789 39.8018 9.36739C40.7888 8.82689 41.8933 8.55664 43.1153 8.55664C44.0318 8.55664 44.8778 8.70939 45.6533 9.01489C46.4288 9.32039 47.0868 9.76689 47.6273 10.3544L46.799 11.1828C45.8355 10.2075 44.6193 9.71989 43.1506 9.71989C42.1753 9.71989 41.2882 9.94314 40.4892 10.3896C39.6902 10.8361 39.0616 11.4471 38.6033 12.2226C38.1568 12.9981 37.9336 13.8676 37.9336 14.8311C37.9336 15.7946 38.1568 16.6641 38.6033 17.4396C39.0616 18.2151 39.6902 18.8261 40.4892 19.2726C41.2882 19.7191 42.1753 19.9424 43.1506 19.9424C44.6311 19.9424 45.8472 19.4489 46.799 18.4619L47.6273 19.2903C47.0868 19.8778 46.423 20.3301 45.6357 20.6474C44.8602 20.9529 44.0142 21.1056 43.0977 21.1056Z" fill="#9F9F9F" />
  <path d="M58.6153 19.9071V23.2383H57.4344V20.9999H49.133V23.2383H47.9522V19.9071H48.4809C49.1037 19.8719 49.5267 19.4136 49.7499 18.5324C49.9732 17.6511 50.1259 16.4174 50.2082 14.8311L50.3315 11.7291H57.17V19.9071H58.6153ZM51.3538 14.9016C51.295 16.2176 51.1834 17.3045 51.0189 18.1623C50.8544 19.0083 50.5607 19.5899 50.1377 19.9071H55.9187V12.8395H51.4595L51.3538 14.9016Z" fill="#9F9F9F" />
  <path d="M69.1615 16.7523H61.4065C61.477 17.7158 61.8471 18.4971 62.5169 19.0964C63.1866 19.6839 64.0326 19.9776 65.0549 19.9776C65.6306 19.9776 66.1594 19.8778 66.6411 19.678C67.1229 19.4665 67.54 19.161 67.8925 18.7615L68.5975 19.5723C68.1863 20.0658 67.6693 20.4418 67.0465 20.7003C66.4355 20.9588 65.7599 21.088 65.0196 21.088C64.0679 21.088 63.2219 20.8883 62.4816 20.4888C61.7531 20.0775 61.1833 19.5135 60.772 18.7968C60.3608 18.08 60.1551 17.2693 60.1551 16.3645C60.1551 15.4598 60.349 14.649 60.7368 13.9323C61.1363 13.2155 61.6768 12.6574 62.3583 12.2579C63.0515 11.8584 63.827 11.6586 64.6848 11.6586C65.5425 11.6586 66.3121 11.8584 66.9936 12.2579C67.6751 12.6574 68.2098 13.2155 68.5975 13.9323C68.9853 14.6373 69.1791 15.448 69.1791 16.3645L69.1615 16.7523ZM64.6848 12.7338C63.7918 12.7338 63.0398 13.0216 62.4288 13.5974C61.8295 14.1614 61.4888 14.9016 61.4065 15.8181H67.9806C67.8984 14.9016 67.5518 14.1614 66.9408 13.5974C66.3415 13.0216 65.5895 12.7338 64.6848 12.7338Z" fill="#9F9F9F" />
  <path d="M79.3386 11.7291V20.9999H78.0872V12.8395H73.6457L73.5223 15.1308C73.4283 17.0578 73.2051 18.5383 72.8526 19.5723C72.5001 20.6063 71.8714 21.1233 70.9667 21.1233C70.7199 21.1233 70.4203 21.0763 70.0678 20.9823L70.1559 19.9071C70.3675 19.9541 70.5143 19.9776 70.5966 19.9776C71.0783 19.9776 71.4426 19.7544 71.6893 19.3079C71.9361 18.8614 72.1006 18.3091 72.1828 17.6511C72.2651 16.9931 72.3356 16.1236 72.3943 15.0426L72.5529 11.7291H79.3386Z" fill="#9F9F9F" />
  <path d="M86.0861 11.6586C87.2963 11.6586 88.2246 11.9641 88.8708 12.5751C89.5171 13.1744 89.8402 14.0674 89.8402 15.2541V20.9999H88.6417V19.5546C88.3597 20.0364 87.9426 20.4124 87.3903 20.6826C86.8498 20.9529 86.2036 21.088 85.4516 21.088C84.4176 21.088 83.5951 20.8413 82.9841 20.3478C82.3731 19.8543 82.0676 19.2021 82.0676 18.3914C82.0676 17.6041 82.3496 16.9696 82.9136 16.4879C83.4893 16.0061 84.3999 15.7653 85.6454 15.7653H88.5888V15.2013C88.5888 14.4023 88.3656 13.7971 87.9191 13.3859C87.4726 12.9629 86.8204 12.7514 85.9627 12.7514C85.3752 12.7514 84.8112 12.8513 84.2707 13.051C83.7302 13.239 83.2661 13.5034 82.8783 13.8441L82.3143 12.91C82.7843 12.5105 83.3483 12.205 84.0063 11.9935C84.6643 11.7703 85.3576 11.6586 86.0861 11.6586ZM85.6454 20.101C86.3504 20.101 86.9556 19.9424 87.4608 19.6251C87.9661 19.2961 88.3421 18.8261 88.5888 18.2151V16.6994H85.6807C84.0944 16.6994 83.3013 17.2516 83.3013 18.3561C83.3013 18.8966 83.5069 19.3255 83.9182 19.6428C84.3294 19.9483 84.9052 20.101 85.6454 20.101Z" fill="#9F9F9F" />
  <path d="M93.1714 11.7291H94.4228V15.8358H100.257V11.7291H101.508V20.9999H100.257V16.9109H94.4228V20.9999H93.1714V11.7291Z" fill="#9F9F9F" />
  <path d="M108.889 21.088C107.996 21.088 107.192 20.8883 106.475 20.4888C105.758 20.0775 105.194 19.5135 104.783 18.7968C104.372 18.08 104.166 17.2693 104.166 16.3645C104.166 15.4598 104.372 14.649 104.783 13.9323C105.194 13.2155 105.758 12.6574 106.475 12.2579C107.192 11.8584 107.996 11.6586 108.889 11.6586C109.782 11.6586 110.587 11.8584 111.304 12.2579C112.021 12.6574 112.579 13.2155 112.978 13.9323C113.39 14.649 113.595 15.4598 113.595 16.3645C113.595 17.2693 113.39 18.08 112.978 18.7968C112.579 19.5135 112.021 20.0775 111.304 20.4888C110.587 20.8883 109.782 21.088 108.889 21.088ZM108.889 19.9776C109.547 19.9776 110.135 19.8308 110.652 19.537C111.181 19.2315 111.592 18.8026 111.886 18.2504C112.179 17.6981 112.326 17.0695 112.326 16.3645C112.326 15.6595 112.179 15.0309 111.886 14.4786C111.592 13.9264 111.181 13.5034 110.652 13.2096C110.135 12.9041 109.547 12.7514 108.889 12.7514C108.231 12.7514 107.638 12.9041 107.109 13.2096C106.592 13.5034 106.181 13.9264 105.876 14.4786C105.582 15.0309 105.435 15.6595 105.435 16.3645C105.435 17.0695 105.582 17.6981 105.876 18.2504C106.181 18.8026 106.592 19.2315 107.109 19.537C107.638 19.8308 108.231 19.9776 108.889 19.9776Z" fill="#9F9F9F" />
  <path d="M126.787 16.2059C128.044 16.4996 128.673 17.2575 128.673 18.4795C128.673 19.2903 128.373 19.913 127.774 20.3478C127.175 20.7825 126.282 20.9999 125.095 20.9999H120.883V11.7291H124.972C126.029 11.7291 126.857 11.9348 127.457 12.346C128.056 12.7573 128.356 13.3448 128.356 14.1085C128.356 14.6138 128.215 15.0485 127.933 15.4128C127.662 15.7653 127.28 16.0296 126.787 16.2059ZM122.099 15.8534H124.883C125.6 15.8534 126.147 15.7183 126.523 15.448C126.91 15.1778 127.104 14.7841 127.104 14.2671C127.104 13.7501 126.91 13.3624 126.523 13.1039C126.147 12.8454 125.6 12.7161 124.883 12.7161H122.099V15.8534ZM125.042 20.0129C125.841 20.0129 126.44 19.8836 126.84 19.6251C127.239 19.3666 127.439 18.9613 127.439 18.409C127.439 17.8568 127.257 17.4514 126.893 17.1929C126.528 16.9226 125.953 16.7875 125.165 16.7875H122.099V20.0129H125.042Z" fill="#9F9F9F" />
  <path d="M0 24L13.875 0L17.3438 6L13.875 12H20.8125L27.75 24H0Z" fill="#0061FF" />
  <path fill-rule="evenodd" clip-rule="evenodd" d="M179.31 16.6824C179.31 15.3464 180.369 14.3616 181.633 14.3616C182.966 14.3616 183.957 15.415 183.957 16.6824C183.957 18.0182 182.898 19.003 181.633 19.003C180.301 19.003 179.31 17.9582 179.31 16.6824ZM177.302 16.8707C177.388 19.3198 179.404 20.9041 181.65 20.9041C184.076 20.9041 185.999 19.1058 185.999 16.7422C185.999 14.293 184.06 12.6918 181.83 12.5974C181.591 12.5891 181.351 12.6405 181.112 12.7346C181.514 12.2806 184.376 8.94943 184.854 8.62402H182.419C181.608 9.4889 180.788 10.4309 179.95 11.4244C178.661 12.9059 177.302 14.7897 177.302 16.8707Z" fill="#9F9F9F" />
  <path fill-rule="evenodd" clip-rule="evenodd" d="M147.36 19.0706L148.458 20.993H150.636L143.568 8.62402L136.5 20.993H138.677L139.776 19.0706H147.36ZM146.267 17.1574L143.568 12.4344L140.869 17.1574H146.267Z" fill="#9F9F9F" />
  <path d="M164.906 8.62402V10.5442H169.541V20.9801H171.747V10.5442H176.382V8.62402H164.906Z" fill="#9F9F9F" />
  <path fill-rule="evenodd" clip-rule="evenodd" d="M158.782 10.5529H154.932L152.726 10.5442V8.64138H159.04C161.173 8.64138 162.917 10.0707 162.917 12.2148C162.917 13.8077 161.976 15.0391 160.24 15.5643L163.637 20.9802H161.154L157.877 15.7452H154.932V20.9802H152.726V13.8767H154.932H158.782C159.751 13.8767 160.748 13.248 160.748 12.2148C160.748 11.2418 159.834 10.5529 158.782 10.5529Z" fill="#9F9F9F" />
</svg>
