<svg width="28" height="28" viewBox="0 0 28 28" fill="none" xmlns="http://www.w3.org/2000/svg">
  <path d="M21.085 6C21.6895 6 22.3117 6.14618 22.8999 6.40867C23.4925 6.673 24.0521 7.05708 24.5253 7.52997C24.9781 7.98119 25.3574 8.51832 25.6172 9.11386C25.8602 9.67082 26 10.2788 26 10.9153C26 11.5793 25.8673 12.214 25.627 12.7931C25.3783 13.3932 25.013 13.9345 24.5604 14.3873L24.5578 14.391C24.2274 14.7215 23.847 15.0064 23.4299 15.2337C23.022 15.456 22.5795 15.6226 22.114 15.722C22.0828 15.7286 22.0564 15.745 22.0387 15.7669C22.0204 15.7891 22.0101 15.8187 22.0101 15.8515V23.5095C22.0101 23.6909 21.9356 23.8561 21.8164 23.9756C21.6969 24.0961 21.5312 24.1704 21.3493 24.1704H6.6507C6.46884 24.1704 6.3031 24.0961 6.18363 23.9766C6.06415 23.8571 5.98987 23.6914 5.98987 23.5095V15.8515C5.98987 15.8185 5.97956 15.7888 5.96237 15.7677C5.94361 15.7447 5.91744 15.7283 5.88678 15.722C5.4197 15.6226 4.97667 15.456 4.56774 15.2337C4.15062 15.0064 3.76998 14.7215 3.43957 14.391C2.98782 13.9393 2.62251 13.3969 2.37271 12.7942C2.13296 12.2145 2 11.5793 2 10.9153C2 10.2791 2.13957 9.67161 2.38249 9.11439C2.6426 8.51753 3.02112 7.97987 3.47234 7.52865C3.94735 7.05628 4.50774 6.67221 5.10065 6.40814C5.68879 6.14592 6.31077 6 6.91504 6C7.62319 6 8.22825 6.21438 8.74873 6.55643C9.25705 6.89028 9.6813 7.34573 10.0416 7.83951C10.0551 7.85801 10.072 7.87255 10.0905 7.8818C10.1101 7.89026 10.1325 7.89475 10.156 7.8937C10.1796 7.89264 10.2012 7.88629 10.2182 7.87625C10.2351 7.8662 10.2504 7.85008 10.2628 7.82972L10.3485 7.69148L10.4418 7.55694C10.7688 7.10281 11.2036 6.71106 11.7904 6.43431C12.368 6.16151 13.0907 6 14 6C14.9022 6 15.6309 6.15781 16.2188 6.42585C16.8157 6.69785 17.2648 7.08272 17.6018 7.53156L17.6917 7.65659L17.7744 7.78215C17.7871 7.8025 17.8032 7.81836 17.8202 7.82814C17.8371 7.83792 17.8588 7.844 17.882 7.84479C17.9053 7.84559 17.927 7.84162 17.9444 7.83316C17.9634 7.82365 17.9804 7.80937 17.9938 7.79113C18.3523 7.30793 18.7739 6.86358 19.2772 6.53872C19.7913 6.20698 20.3876 6 21.085 6ZM23.2192 8.83472C22.9123 8.5273 22.5552 8.27778 22.1822 8.10702C21.8219 7.94207 21.4453 7.85034 21.085 7.85034C20.5021 7.85034 20.0057 8.23812 19.5872 8.75489C19.1405 9.30683 18.7786 10.0102 18.4895 10.5738L17.9018 11.7147C17.8329 11.8487 17.7237 11.951 17.595 12.011C17.4667 12.0718 17.3182 12.0895 17.1704 12.0562C17.0221 12.0231 16.8955 11.9433 16.8054 11.8344C16.7158 11.7247 16.6605 11.5854 16.6555 11.4339L16.6209 10.4287C16.6103 10.1152 16.5773 9.78343 16.499 9.46755C16.4242 9.16462 16.3068 8.87649 16.1274 8.63753C15.9592 8.41338 15.72 8.21962 15.3864 8.08111C15.0372 7.93599 14.5839 7.85034 14 7.85034C13.4227 7.85034 12.9815 7.93625 12.6448 8.08111C12.3241 8.21909 12.0978 8.41179 11.9379 8.63383C11.7603 8.88072 11.6411 9.18391 11.5562 9.50323C11.4669 9.83867 11.4145 10.191 11.372 10.5191L11.2631 11.3512C11.2438 11.4963 11.1803 11.6248 11.086 11.7234C10.9908 11.8225 10.865 11.8912 10.7215 11.9161C10.579 11.9407 10.4373 11.9187 10.3154 11.8585C10.1923 11.7974 10.0886 11.6977 10.0218 11.5682L9.51027 10.577C9.22162 10.0126 8.86107 9.31079 8.4117 8.75516C7.99326 8.23786 7.49737 7.85034 6.91504 7.85034C6.55475 7.85034 6.17834 7.94207 5.81805 8.10675C5.44481 8.27751 5.08743 8.52652 4.7808 8.83341C4.49215 9.12338 4.25081 9.46225 4.08613 9.83232C3.93625 10.1686 3.85034 10.5344 3.85034 10.9153C3.85034 11.3314 3.93282 11.7273 4.0819 12.0871C4.23627 12.4614 4.46466 12.7992 4.74802 13.0826C5.03112 13.3657 5.36895 13.5935 5.74325 13.7487C6.10301 13.8978 6.49924 13.9803 6.91504 13.9803H7.17937C7.36044 13.9803 7.52592 14.0548 7.6454 14.174C7.76567 14.2946 7.84021 14.46 7.84021 14.6411V22.1879C7.84021 22.2241 7.85527 22.2574 7.87907 22.2812C7.90285 22.305 7.93616 22.32 7.97238 22.32H20.0276C20.0638 22.32 20.0971 22.305 20.1209 22.2812C20.145 22.2579 20.1598 22.2243 20.1598 22.1879V14.6411C20.1598 14.4592 20.2341 14.2935 20.3535 14.174C20.4741 14.0548 20.6393 13.9803 20.8206 13.9803H21.085C21.5018 13.9803 21.8983 13.8978 22.2586 13.749C22.6329 13.5943 22.971 13.3665 23.2538 13.0844C23.5359 12.8016 23.7637 12.4635 23.9184 12.089C24.0672 11.7289 24.1497 11.3324 24.1497 10.9153C24.1497 10.5349 24.0635 10.1694 23.9136 9.83232C23.75 9.46305 23.5086 9.12496 23.2192 8.83472Z" fill="#787E86" />
</svg>
