<svg width="28" height="28" viewBox="0 0 28 28" fill="none" xmlns="http://www.w3.org/2000/svg">
  <path fill-rule="evenodd" clip-rule="evenodd" d="M14.0002 2.33301C20.4332 2.33301 25.6668 7.56667 25.6668 13.9997C25.6668 20.4327 20.4332 25.6663 14.0002 25.6663C7.56716 25.6663 2.3335 20.4327 2.3335 13.9997C2.3335 7.56667 7.56716 2.33301 14.0002 2.33301ZM14.0002 4.08301C8.532 4.08301 4.0835 8.53151 4.0835 13.9997C4.0835 19.4678 8.532 23.9163 14.0002 23.9163C19.4683 23.9163 23.9168 19.4678 23.9168 13.9997C23.9168 8.53151 19.4683 4.08301 14.0002 4.08301ZM13.6049 8.27764C14.0891 8.27764 14.4799 8.66964 14.4799 9.15264V14.3116L18.4524 16.68C18.8666 16.9285 19.0031 17.4651 18.7557 17.8805C18.5912 18.1546 18.3007 18.3075 18.0032 18.3075C17.8504 18.3075 17.6964 18.2678 17.5552 18.185L13.1569 15.5611C12.8932 15.4025 12.7299 15.1166 12.7299 14.8086V9.15264C12.7299 8.66964 13.1219 8.27764 13.6049 8.27764Z" fill="#787E86" />
</svg>
