<svg width="464" height="238" viewBox="0 0 464 238" fill="none" xmlns="http://www.w3.org/2000/svg"><path fill="#fff" d="M0 0h464v238H0z"/><path d="M152.817 99.502c.248-.567.248-.567 1.618-3.908-3.299-.379-5.105-.694-7.968-.631-3.735-1.891-7.906-2.963-12.326-2.963C119.139 92 107 104.293 107 119.487c0 15.193 12.139 27.487 27.141 27.487 15.003 0 27.142-12.294 27.142-27.487 0-7.881-3.3-14.941-8.466-19.985Z" fill="#fff"/><path d="M150.823 103.346c-.063-.063-.125-.063-.187-.063s-.125.063-.187.063c-1.12 1.324-2.428 2.522-3.859 3.468-2.864 1.828-6.101 2.837-9.525 2.837-6.349 0-9.96-3.152-12.886-5.422-.062-.063-.124-.126-.124-.189s.062-.126.124-.189c4.545-3.531 8.28-5.8 12.077-7.124.124-.063.187-.126.187-.252s-.125-.19-.249-.252c-.685-.064-1.37-.064-2.055-.064-12.761-.063-23.095 10.403-23.095 23.326 0 7.124 3.113 13.492 8.093 17.779.062.063.125.063.249.063.062 0 .125-.063.187-.189l.934-3.027a.34.34 0 0 1 .311-.189c12.325 2.711 17.617-4.034 16.745-8.258-.747-3.594-6.536-6.746-15.002-1.892-.062.063-.125.063-.187 0 0 0-.062 0-.062-.063-.062-.063-.125-.126-.125-.252l2.864-14.815c0-.063.062-.126.124-.189.063-.063.187 0 .249 0 .81.504 3.237 2.08 5.852 3.656.062.063.124.126.124.253-.062.63-.435 2.963-.56 3.971 0 .063 0 .189.062.252.063.063.125.063.249.063 14.194-3.845 17.182 5.17 16.808 9.457-.871 9.772-11.516 14.941-20.978 15.067-.125 0-.249.063-.249.189s.062.253.186.253c2.304.756 4.731 1.197 7.221 1.197 12.762 0 23.095-10.465 23.095-23.389 0-6.178-2.49-11.915-6.411-16.076Z" fill="#E61801"/><path d="M128.166 103.979c7.657 5.863 18.862 2.9 22.597-6.242-6.91 3.342-14.567 5.485-22.597 6.242Z" fill="#78B617"/><path d="M128.166 103.978a63.816 63.816 0 0 0 22.597-6.241c-7.781-.883-15.874 1.072-22.597 6.241Z" fill="#28A62A"/><path d="M245.259 113.436c-2.926 0-4.669 1.891-6.1 4.224h-.063c0-2.396-.933-4.224-3.61-4.224-3.175 0-4.856 2.395-5.976 4.413h-.062c.186-.757.373-1.828.56-2.711a.942.942 0 0 0-.249-.82c-.187-.252-.498-.378-.809-.378h-3.175l-2.864 16.202c-.062.252 0 .568.187.82.187.189.436.315.747.315h3.361l.25-1.45c1.68-9.646 3.984-12.293 5.851-12.293 1.307 0 1.494 1.261 1.183 2.963l-1.743 9.456c-.062.315 0 .631.249.883.187.252.498.378.809.378h3.299l.249-1.45c1.681-9.583 3.984-12.293 5.852-12.293 1.245 0 1.432 1.197 1.12 2.963l-1.743 9.708c-.062.252 0 .505.187.757.187.189.436.315.685.315h3.424l1.93-10.969c.186-.883.248-1.703.248-2.396-.062-2.9-1.431-4.413-3.797-4.413Zm19.049-3.657 1.494.253c.436.063.809.126.934-.568l.498-1.891c.124-.568-.063-.694-.623-.82l-1.369-.252c-.312 0-.81-.126-.934.567l-.56 1.955c-.063.441.062.693.56.756Zm-43.576 4.161h-6.536c-4.855 0-8.092 2.081-8.092 5.989 0 2.081 1.431 3.405 2.863 3.531v.063c-.56.189-1.183.945-1.868 1.765-1.182 1.513-2.054 2.522-2.801 2.522-.124 0-.249.126-.311.252l-.373 2.711c0 .126 0 .252.124.315a.472.472 0 0 0 .311.126h1.37c2.241 0 2.988-.883 5.167-3.657 1.68-2.269 2.303-2.963 3.361-2.963h.747l-1.058 6.116c0 .126 0 .252.062.315.062.126.187.126.311.126h3.798c.186 0 .373-.126.373-.315l2.926-16.518c0-.126 0-.252-.062-.315-.063 0-.187-.063-.312-.063Zm-5.415 7.565h-2.366c-1.494 0-2.179-.504-2.179-1.513 0-1.702 1.059-2.584 3.113-2.584h2.241l-.809 4.097Zm-5.976-15.571c18.177-.757 46.874 2.648 46.874 2.648a.713.713 0 0 0 .81-.442l.311-.945.498-1.576c.062-.127 0-.19-.062-.316-.063-.063-.125-.126-.249-.189-3.549-.504-29.756-3.909-48.805-3.467-17.928.441-32.993 4.035-37.039 5.106-.311.063-.56.315-.623.694l-.435 2.332c0 .126 0 .253.124.316.062.063.187.126.311.063 3.237-.757 7.782-1.513 13.758-2.27l-3.984 22.569c-.125.379-.125.82.622.82h3.86c.249 0 .56-.063.685-.693l3.735-21.813c0-.063.249-1.198 1.494-1.513 1.618-.19 4.419-.316 6.1-.505l-4.171 23.704c-.124.82.249.757.561.757h4.046c.311 0 .809-.063.934-.82l3.921-22.758s.25-1.198 1.495-1.45c1.992-.063 3.237-.189 5.229-.252Zm50.236 3.215 1.681.252c.435.063.809.126.996-.567l.56-1.955c.124-.63-.062-.756-.623-.882l-1.556-.189c-.311-.063-.809-.126-.996.567l-.56 2.017c-.187.379-.062.631.498.757Zm6.536 8.826c0-2.837-1.93-4.476-5.229-4.476-5.478 0-9.836 4.791-9.836 11.285 0 4.097 2.242 6.934 6.537 6.934 3.361 0 5.54-1.324 6.847-2.521l-1.805-3.09c-1.058.946-2.552 1.829-4.357 1.829-1.868 0-2.615-1.198-2.677-3.152 5.727-.631 10.52-2.585 10.52-6.809Zm-10.209 3.846c.623-2.522 2.054-4.792 4.233-4.792 1.058 0 1.619.442 1.619 1.45-.063 1.829-2.428 3.026-5.852 3.342Zm23.718-8.385c-2.988 0-4.545 2.08-5.976 4.539h-.063c.187-.63.311-1.198.436-1.828.125-.568 0-1.135-.373-1.576-.374-.442-.872-.694-1.432-.694h-2.179l-4.544 25.091h2.552c1.12 0 2.117-.819 2.303-1.954l.996-5.611c.374.126 1.121.252 2.366.252 5.914 0 10.209-4.854 10.209-12.356.124-3.531-1.619-5.863-4.295-5.863Zm-5.79 14.815c-.996 0-1.494-.126-1.743-.189l.187-.946c1.307-6.367 3.486-9.582 5.54-9.582 1.059 0 1.557 1.008 1.557 2.584-.125 5.044-2.553 8.133-5.541 8.133Zm77.254-14.815c-6.35 0-10.77 5.106-10.77 12.545 0 3.531 1.805 5.674 4.42 5.674 2.801 0 4.482-2.08 5.789-4.602h.062c-.186.757-.311 1.702-.436 2.585-.061.378.063.819.374 1.135.249.315.622.504 1.058.504h2.927c.061-1.261.248-4.098 1.057-8.889l1.432-7.88c-.747-.379-2.801-1.072-5.913-1.072Zm.809 4.665c-1.184 6.493-3.424 9.583-5.292 9.583-1.058 0-1.557-.82-1.557-2.522 0-4.854 2.553-8.259 5.355-8.259.685 0 1.306.126 1.618.189l-.124 1.009Zm-17.555 6.304c-.498-1.008-.996-1.702-1.494-2.143l7.532-8.322h-4.108c-.686 0-1.37.315-1.867.883l-5.292 6.178h-.934l.997-5.674c.061-.315 0-.693-.25-.946a1.184 1.184 0 0 0-.871-.441h-3.3l-2.988 17.337h3.3c.746 0 1.369-.567 1.493-1.261l1.059-5.863h.498c.996 0 1.619 1.072 2.676 3.404 1.245 2.711 1.868 3.72 4.047 3.72h1.805l.622-3.467h-.373c-.809 0-1.493-1.072-2.552-3.405Zm-18.551-9.393c-.685 4.413-2.926 7.313-5.105 7.313-1.12 0-1.493-.82-1.182-2.711l.56-3.404c.062-.568-.062-1.135-.436-1.576-.373-.442-.871-.694-1.431-.694h-2.304l-1.058 5.863a13.704 13.704 0 0 0-.187 2.144c0 2.9 1.369 4.476 3.797 4.476 3.051 0 5.043-2.018 6.288-4.224h.062c-.498 2.648-1.182 6.556-1.431 9.015h4.419c.063-1.261.374-4.098 1.183-8.889l1.494-8.448h-4.544l-.125 1.135Zm-20.418-1.576c-5.54 0-9.711 4.98-9.711 10.969 0 3.972 2.428 7.25 6.847 7.25 5.665 0 9.587-4.728 9.587-10.969.063-4.098-2.428-7.25-6.723-7.25Zm-2.428 14.689c-1.743 0-2.614-1.513-2.614-3.783 0-3.215 1.805-7.313 4.668-7.313 1.744 0 2.615 1.324 2.615 3.72 0 3.152-1.618 7.376-4.669 7.376Z" fill="#E61801"/></svg>