<svg width="186" height="24" viewBox="0 0 186 24" fill="none" xmlns="http://www.w3.org/2000/svg"><path d="M43.098 21.106c-1.222 0-2.327-.27-3.314-.811a6.037 6.037 0 0 1-2.309-2.239c-.552-.963-.828-2.038-.828-3.225 0-1.187.276-2.256.828-3.208a5.965 5.965 0 0 1 2.327-2.256c.987-.54 2.091-.81 3.313-.81.917 0 1.763.152 2.538.458a5.26 5.26 0 0 1 1.974 1.34l-.828.828c-.963-.976-2.18-1.463-3.648-1.463-.976 0-1.863.223-2.662.67a4.959 4.959 0 0 0-1.886 1.833c-.446.775-.67 1.645-.67 2.608 0 .964.224 1.833.67 2.609a4.959 4.959 0 0 0 1.886 1.833c.8.446 1.686.67 2.662.67 1.48 0 2.696-.494 3.648-1.481l.828.828a5.41 5.41 0 0 1-1.991 1.357 6.865 6.865 0 0 1-2.538.459Zm15.517-1.199v3.331h-1.18V21h-8.302v2.238h-1.18v-3.33h.528c.623-.036 1.046-.494 1.269-1.376.223-.88.376-2.115.458-3.7l.123-3.103h6.839v8.178h1.445Zm-7.261-5.005c-.059 1.316-.17 2.403-.335 3.26-.165.846-.458 1.428-.881 1.745h5.78V12.84H51.46l-.105 2.063Zm17.808 1.85h-7.756c.071.964.441 1.745 1.11 2.344.67.588 1.517.882 2.539.882a4.1 4.1 0 0 0 1.586-.3 3.56 3.56 0 0 0 1.251-.916l.706.81c-.412.494-.929.87-1.552 1.128a5.15 5.15 0 0 1-2.026.388c-.952 0-1.798-.2-2.538-.6a4.464 4.464 0 0 1-1.71-1.691c-.411-.717-.617-1.528-.617-2.433 0-.904.194-1.715.582-2.432.4-.716.94-1.275 1.621-1.674.694-.4 1.469-.6 2.327-.6.858 0 1.627.2 2.309.6.681.4 1.216.958 1.603 1.674.388.705.582 1.516.582 2.432l-.017.388Zm-4.477-4.018c-.893 0-1.645.288-2.256.863-.6.564-.94 1.305-1.023 2.221h6.575c-.083-.916-.43-1.657-1.04-2.22-.6-.576-1.352-.864-2.256-.864Zm14.654-1.004V21h-1.252v-8.16h-4.441l-.124 2.29c-.094 1.928-.317 3.408-.67 4.442-.352 1.034-.98 1.551-1.885 1.551-.247 0-.547-.047-.9-.14l.089-1.076c.212.047.358.07.44.07.482 0 .847-.223 1.093-.67.247-.446.412-.998.494-1.656a39 39 0 0 0 .211-2.608l.159-3.314h6.786Zm6.747-.071c1.21 0 2.139.305 2.785.916.646.6.97 1.492.97 2.68V21h-1.2v-1.445c-.281.481-.698.857-1.25 1.128-.541.27-1.187.405-1.94.405-1.033 0-1.856-.247-2.467-.74-.61-.494-.916-1.146-.916-1.957 0-.787.282-1.421.846-1.903.575-.482 1.486-.723 2.731-.723h2.944v-.564c0-.799-.223-1.404-.67-1.815-.446-.423-1.099-.635-1.956-.635-.588 0-1.152.1-1.692.3a4.146 4.146 0 0 0-1.393.793l-.564-.934c.47-.4 1.034-.705 1.692-.917a6.43 6.43 0 0 1 2.08-.334Zm-.44 8.442c.704 0 1.31-.159 1.815-.476.505-.329.881-.799 1.128-1.41V16.7H85.68c-1.587 0-2.38.553-2.38 1.657 0 .54.206.97.617 1.287.411.305.987.458 1.727.458Zm7.525-8.371h1.252v4.106h5.834v-4.107h1.251V21h-1.251v-4.088h-5.834V21H93.17v-9.27Zm15.718 9.358c-.893 0-1.697-.2-2.414-.6a4.496 4.496 0 0 1-1.692-1.691c-.411-.717-.617-1.528-.617-2.433 0-.904.206-1.715.617-2.432a4.368 4.368 0 0 1 1.692-1.674c.717-.4 1.521-.6 2.414-.6.893 0 1.698.2 2.415.6.717.4 1.275.958 1.674 1.674.412.717.617 1.528.617 2.432 0 .905-.205 1.716-.617 2.433a4.366 4.366 0 0 1-1.674 1.692c-.717.4-1.522.599-2.415.599Zm0-1.11c.658 0 1.246-.147 1.763-.441a3.17 3.17 0 0 0 1.234-1.287c.293-.552.44-1.18.44-1.886 0-.705-.147-1.333-.44-1.885a3.06 3.06 0 0 0-1.234-1.27c-.517-.305-1.105-.458-1.763-.458-.658 0-1.251.153-1.78.459a3.204 3.204 0 0 0-1.233 1.269c-.294.552-.441 1.18-.441 1.886 0 .705.147 1.333.441 1.885a3.33 3.33 0 0 0 1.233 1.287 3.6 3.6 0 0 0 1.78.44Zm17.898-3.772c1.257.294 1.886 1.052 1.886 2.274 0 .81-.3 1.433-.899 1.868-.599.434-1.492.652-2.679.652h-4.212v-9.27h4.089c1.057 0 1.885.205 2.485.616.599.411.899.999.899 1.762 0 .506-.141.94-.423 1.305-.271.352-.653.617-1.146.793Zm-4.688-.353h2.784c.717 0 1.264-.135 1.64-.405.387-.27.581-.664.581-1.18 0-.518-.194-.906-.581-1.164-.376-.259-.923-.388-1.64-.388h-2.784v3.137Zm2.943 4.16c.799 0 1.398-.13 1.798-.388.399-.258.599-.664.599-1.216 0-.552-.182-.958-.546-1.216-.365-.27-.94-.405-1.728-.405h-3.066v3.225h2.943Z" fill="#9F9F9F"/><path d="M0 24 13.875 0l3.469 6-3.469 6h6.938l6.937 12H0Z" fill="#0061FF"/><path fill-rule="evenodd" clip-rule="evenodd" d="M179.31 16.682c0-1.336 1.059-2.32 2.323-2.32a2.3 2.3 0 0 1 2.324 2.32c0 1.336-1.059 2.321-2.324 2.321a2.295 2.295 0 0 1-2.323-2.32Zm-2.008.189c.086 2.449 2.102 4.033 4.348 4.033 2.426 0 4.349-1.798 4.349-4.162 0-2.449-1.939-4.05-4.169-4.145a1.79 1.79 0 0 0-.718.138c.402-.454 3.264-3.786 3.742-4.111h-2.435a71.663 71.663 0 0 0-2.469 2.8c-1.289 1.482-2.648 3.366-2.648 5.447ZM147.36 19.07l1.098 1.923h2.178l-7.068-12.369-7.068 12.369h2.177l1.099-1.922h7.584Zm-1.093-1.913-2.699-4.723-2.699 4.723h5.398Z" fill="#9F9F9F"/><path d="M164.906 8.624v1.92h4.635V20.98h2.206V10.544h4.635v-1.92h-11.476Z" fill="#9F9F9F"/><path fill-rule="evenodd" clip-rule="evenodd" d="M158.782 10.553h-3.85l-2.206-.009V8.641h6.314c2.133 0 3.877 1.43 3.877 3.574 0 1.593-.941 2.824-2.677 3.35l3.397 5.415h-2.483l-3.277-5.235h-2.945v5.235h-2.206v-7.103h6.056c.969 0 1.966-.629 1.966-1.662 0-.973-.914-1.662-1.966-1.662Z" fill="#9F9F9F"/></svg>