<svg width="28" height="28" viewBox="0 0 28 28" fill="none" xmlns="http://www.w3.org/2000/svg"><path fill-rule="evenodd" clip-rule="evenodd" d="M14 2.333c6.433 0 11.667 5.234 11.667 11.667S20.433 25.666 14 25.666 2.334 20.433 2.334 14C2.334 7.567 7.567 2.333 14 2.333Zm0 1.75c-5.468 0-9.916 4.449-9.916 9.917S8.532 23.916 14 23.916s9.917-4.448 9.917-9.916S19.468 4.083 14 4.083Zm-.395 4.195c.484 0 .875.392.875.875v5.159l3.972 2.368a.877.877 0 0 1-.897 1.505l-4.398-2.624a.88.88 0 0 1-.427-.752V9.153c0-.483.392-.875.875-.875Z" fill="#787E86"/></svg>