<svg width="464" height="238" viewBox="0 0 464 238" fill="none" xmlns="http://www.w3.org/2000/svg"><path fill="#fff" d="M0 0h464v238H0z"/><g clip-path="url(#a)"><path fill-rule="evenodd" clip-rule="evenodd" d="M327.428 111.819a3.542 3.542 0 0 0-1.028-2.422 3.425 3.425 0 0 0-2.396-1.012h-3.098a3.362 3.362 0 0 0-1.777.515 3.436 3.436 0 0 0-1.251 1.383l-9.039 14.746v-13.21a3.487 3.487 0 0 0-.994-2.424 3.365 3.365 0 0 0-2.383-1.01h-3.099a3.363 3.363 0 0 0-2.383 1.01 3.483 3.483 0 0 0-.994 2.424v23.631c.002.911.359 1.784.991 2.429a3.364 3.364 0 0 0 2.386 1.013h3.455a3.316 3.316 0 0 0 1.582-.398 3.382 3.382 0 0 0 1.214-1.106l8.892-13.305.038 11.351a3.433 3.433 0 0 0 .964 2.429c.31.32.68.574 1.088.748.407.174.845.264 1.287.265h3.508a3.313 3.313 0 0 0 2.39-1.008 3.44 3.44 0 0 0 .964-2.442l-.317-23.607ZM202.393 98.01h-26.095a3.356 3.356 0 0 0-2.38 1.012 3.473 3.473 0 0 0-.989 2.423v2.308a3.49 3.49 0 0 0 .993 2.419 3.374 3.374 0 0 0 2.376 1.015h7.746v28.239c.004.912.362 1.785.996 2.43a3.373 3.373 0 0 0 2.389 1.012h3.872a3.365 3.365 0 0 0 2.387-1.013 3.482 3.482 0 0 0 .99-2.429v-28.239h7.746a3.373 3.373 0 0 0 2.381-1.012c.632-.643.99-1.513.996-2.422v-2.308a3.478 3.478 0 0 0-.994-2.424 3.363 3.363 0 0 0-2.383-1.01m27.009 30.113v-7.128c0-7.767-3.393-12.966-13.268-12.966-7.467 0-11.766 2.93-11.766 6.428 0 2.631 1.309 3.852 2.696 4.435 1.657-1.229 3.725-2.088 7.342-2.088 3.393 0 5.887 1.008 5.972 3.545h-4.756c-.201 0-4.647 0-7.505 1.181a12.62 12.62 0 0 0-1.015.536 1.902 1.902 0 0 1-.278.165 8.604 8.604 0 0 0-3.111 3.248 8.783 8.783 0 0 0-1.072 4.401c0 6.073 4.539 9.287 9.93 9.287 4.825 0 7.234-2.749 7.985-4.498l.116.063c.775 2.741 2.324 4.364 5.422 4.364 3.966 0 5.422-2.678 5.685-4.482-1.27-.528-2.323-2.363-2.323-6.483l-.054-.008Zm-13.253-2.552h4.291v1.623c0 .626-.122 1.247-.36 1.825a4.736 4.736 0 0 1-1.026 1.542 4.593 4.593 0 0 1-3.331 1.359c-2.231 0-3.873-1.331-3.873-3.198 0-2.221 2.053-3.151 4.299-3.151Zm135.995 2.67a7.306 7.306 0 0 1-2.483 1.772 7.2 7.2 0 0 1-2.978.591h-.194a6.218 6.218 0 0 1-3.872-1.3 5.436 5.436 0 0 1-1.573-2.071 7.932 7.932 0 0 1-.774-3.458 7.81 7.81 0 0 1 .813-3.49 5.614 5.614 0 0 1 1.983-2.308.439.439 0 0 1 .101-.063.647.647 0 0 1 .1-.063 6.452 6.452 0 0 1 2.285-.788.724.724 0 0 0 .186 0h.17a3.44 3.44 0 0 1 .38 0h.217a6.005 6.005 0 0 1 2.815.649 6.1 6.1 0 0 1 2.204 1.896c3.183 0 5.166-1.938 5.166-4.38 0-3.623-3.385-7.357-10.735-7.357-7.746 0-15.328 4.844-15.328 15.998s7.861 15.596 15.622 15.596c6.251 0 10.735-2.985 10.735-6.774 0-2.363-2.091-4.23-4.825-4.379" fill="#474530"/><path d="m258.037 112.134.069.047v.016c3.377 2.182 4.795 6.302 4.795 12.32 0 10.043-7.01 14.714-15.042 14.714-9.883 0-14.987-7.184-14.987-18.385 0-13.682 5.569-21.567 17.45-22.843 5.499-.599 6.777-1.591 7.691-2.757 2.448.11 4.772 1.576 4.772 4.325 0 3.796-2.471 5.781-10.116 6.364-6.584.528-8.977 2.56-9.752 7.57a11.809 11.809 0 0 1 8.397-3.261 12.386 12.386 0 0 1 6.544 1.788c.064.026.124.06.179.102Z" fill="#474530"/><path fill-rule="evenodd" clip-rule="evenodd" d="M283.798 108.101a8.647 8.647 0 0 0-4.563 1.188 8.839 8.839 0 0 0-3.299 3.42v-.875a3.488 3.488 0 0 0-.996-2.429 3.37 3.37 0 0 0-2.389-1.013h-3.098a3.367 3.367 0 0 0-2.386 1.013 3.479 3.479 0 0 0-.991 2.429v33.871c.002.911.358 1.784.991 2.429a3.363 3.363 0 0 0 2.386 1.013h3.098a3.373 3.373 0 0 0 2.389-1.012 3.488 3.488 0 0 0 .996-2.43V135.56c1.371 1.985 4.647 3.505 7.8 3.505 6.731 0 12.183-4.214 12.183-15.313 0-11.272-5.282-15.651-12.121-15.651Zm1.897 18.077c-.402 2.639-2.408 4.671-4.833 4.671h-.503a4.004 4.004 0 0 1-2.324-.787 4.762 4.762 0 0 1-1.665-2.206 17.133 17.133 0 0 1-.48-4.797c0-.544.069-1.079.139-1.575.356-2.726 2.378-4.797 4.825-4.797 2.448 0 4.485 2.071 4.841 4.797.105.754.157 1.514.155 2.276a16.821 16.821 0 0 1-.17 2.363" fill="#474530"/><path fill-rule="evenodd" clip-rule="evenodd" d="M115.52 98.239c6.669.004 13.09 2.577 17.97 7.199 4.893-4.631 11.331-7.204 18.016-7.2-4.889-4.658-11.34-7.246-18.04-7.238h-1.285c-6.253.311-12.193 2.877-16.754 7.239h.093Z" fill="#fff"/><path fill-rule="evenodd" clip-rule="evenodd" d="M141.963 125.107a26.036 26.036 0 0 1 4.903-3.663 26.11 26.11 0 0 1 13.058-3.545 27.17 27.17 0 0 0-2.184-10.742 26.757 26.757 0 0 0-6.235-8.95c-6.689.004-13.127 2.588-18.016 7.231a26.878 26.878 0 0 1 6.257 8.947 27.29 27.29 0 0 1 2.217 10.745m-21.842-3.685a25.721 25.721 0 0 1 4.895 3.67c.005-3.698.76-7.356 2.218-10.744a26.88 26.88 0 0 1 6.255-8.948c-4.894-4.628-11.332-7.196-18.015-7.184h-.047a26.834 26.834 0 0 0-6.227 8.938A27.244 27.244 0 0 0 107 117.9a25.99 25.99 0 0 1 13.121 3.545Z" fill="#94C22B"/><path fill-rule="evenodd" clip-rule="evenodd" d="M141.963 125.107a26.846 26.846 0 0 0-6.15 8.698 27.246 27.246 0 0 0-2.316 10.451v.473a27.176 27.176 0 0 0-2.226-10.711 26.775 26.775 0 0 0-6.255-8.911v.079a27.168 27.168 0 0 0 8.419 19.677h.109a27.08 27.08 0 0 0 5.073-6.601 27.205 27.205 0 0 0 3.346-13.076v-.079Z" fill="#474530"/><path fill-rule="evenodd" clip-rule="evenodd" d="M107 117.899v.04c.002 6.888 2.598 13.514 7.256 18.516 4.657 5.002 11.022 7.999 17.785 8.376h1.41a27.132 27.132 0 0 1-5.089-6.57 27.215 27.215 0 0 1-3.346-13.075v-.079a25.802 25.802 0 0 0-4.903-3.663A25.936 25.936 0 0 0 107 117.899" fill="#6B8C26"/><path fill-rule="evenodd" clip-rule="evenodd" d="M133.49 105.439a26.869 26.869 0 0 0-6.259 8.946 27.253 27.253 0 0 0-2.215 10.746 26.784 26.784 0 0 1 6.244 8.905 27.177 27.177 0 0 1 2.222 10.701v-.465a27.203 27.203 0 0 1 2.319-10.462 26.824 26.824 0 0 1 6.162-8.703 27.272 27.272 0 0 0-2.217-10.745 26.89 26.89 0 0 0-6.256-8.947m26.442 12.484a26.105 26.105 0 0 0-13.066 3.545 26.036 26.036 0 0 0-4.903 3.663v.079a27.134 27.134 0 0 1-3.346 13.075 26.886 26.886 0 0 1-5.074 6.601h1.278c6.78-.363 13.164-3.358 17.837-8.368 4.672-5.009 7.276-11.651 7.274-18.555v-.04Z" fill="#6B8C26"/><path d="M242.901 118.281c0-.216.176-.391.392-.391h3.605a6.177 6.177 0 0 1 6.178 6.177v1.09a5.087 5.087 0 1 1-10.175 0v-6.876Z" fill="#fff"/></g><defs><clipPath id="a"><path fill="#fff" transform="translate(107 91)" d="M0 0h250v58.139H0z"/></clipPath></defs></svg>