<svg width="464" height="238" viewBox="0 0 464 238" fill="none" xmlns="http://www.w3.org/2000/svg"><path fill="#fff" d="M0 0h464v238H0z"/><path d="M211.419 132.595h-21.563l27.529-36.429c.6-.8.434-1.966-.366-2.566-.3-.233-.7-.367-1.1-.367h-39.828c-3.5 0-6.366 2.867-6.366 6.366 0 3.5 2.866 6.366 6.366 6.366h17.897l-27.629 36.462c-.633.8-.467 1.933.333 2.566.333.267.733.4 1.133.367h43.561c3.5-.167 6.199-3.167 6.033-6.7a6.357 6.357 0 0 0-6.033-6.032v-.033h.033Zm139.182-39.362c-3.5 0-6.366 2.867-6.366 6.366v21.364L309.84 93.666a1.813 1.813 0 0 0-2.567.267c-.266.333-.4.733-.4 1.167v43.894c0 3.499 2.867 6.366 6.366 6.366 3.5 0 6.366-2.833 6.366-6.366V117.63L354 144.96c.8.633 1.967.5 2.6-.3.267-.334.4-.734.4-1.134V99.599a6.393 6.393 0 0 0-6.399-6.366Zm-91.021 40.561c-14.565 0-25.43-7.665-25.43-14.531 0-6.866 10.898-14.531 25.43-14.531 14.564 0 25.43 7.665 25.43 14.531 0 6.866-10.832 14.531-25.43 14.531Zm0-41.794c-21.064 0-38.162 12.198-38.162 27.263 0 15.065 17.098 27.263 38.162 27.263s38.161-12.198 38.161-27.263c0-15.065-17.097-27.263-38.161-27.263Zm-125.284 41.828c-8.032 0-14.564-6.499-14.564-14.532 0-8.032 6.499-14.564 14.531-14.564s14.565 6.499 14.565 14.531v.033c0 7.999-6.499 14.498-14.532 14.532Zm0-41.828c-15.064 0-27.263 12.198-27.296 27.263 0 15.065 12.198 27.263 27.263 27.296 15.065 0 27.263-12.198 27.296-27.263v-.033C161.526 104.198 149.328 92 134.296 92Z" fill="#005BFF"/></svg>